<?xml version="1.0" encoding="utf-8"?>
<!-- Generator: Adobe Illustrator 16.0.4, SVG Export Plug-In . SVG Version: 6.00 Build 0)  -->
<!DOCTYPE svg PUBLIC "-//W3C//DTD SVG 1.1//EN" "http://www.w3.org/Graphics/SVG/1.1/DTD/svg11.dtd">
<svg version="1.1" id="Layer_1" xmlns="http://www.w3.org/2000/svg" xmlns:xlink="http://www.w3.org/1999/xlink" x="0px" y="0px"
	 width="120px" height="120px" viewBox="0 0 120 120" enable-background="new 0 0 120 120" xml:space="preserve">
<path fill="#C1272D" d="M60.318,0.951c-32.612,0-59.049,26.438-59.049,59.05c0,32.612,26.437,59.047,59.049,59.047
	c32.612,0,59.049-26.436,59.049-59.047C119.367,27.389,92.931,0.951,60.318,0.951z M107.178,42.792l-8.053-1.404L94.403,28.1
	l4.461-7.205L107.178,42.792z M96.808,19.277l-4.108,8.318l-7.738,0.34l-3.768-11.651L96.808,19.277z M78.389,16.284l5.043,11.634
	l-10.609,3.759l-8.317-7.508L78.389,16.284z M62.055,26.572l9.762,6.324l-6.932,8.55l-8.639,0.022L62.055,26.572z M37.841,60.473
	l11.741,4.285l1.133-3.907l-12.183-2.448l1.651-4.942l11.57,3.96l0.99-3.462l-11.849-2.583l1.606-4.851l11.32,4.053l1.219-3.871
	l-11.848-2.582l1.94-4.683l10.736,3.794l-0.125,0.007h9.772l10.736-3.797l1.407,4.799l-11.315,2.468l1.195,3.956l11.01-3.972
	l1.523,4.774l-11.431,2.492l0.988,3.463l11.142-3.863l1.536,4.751l-11.849,2.583l1.342,3.867l11.44-3.991l1.539,4.795l-13.157,3.685
	l-21.86-0.008l-13.65-3.593L37.841,60.473z M16.872,76.17l24.932-6.558l5.908,1.601l-2.794,11.4l-19.989-3.597l8.979,8.802
	l-3.703,8.071L16.872,76.17z M39.272,109.873l-7.214-11.345l3.289-9.845l20.523,12.344l-12.467,0.535l15.089,10.055L39.272,109.873z
	 M59.987,81.851l-6.235,2.102L49.35,71.416h21.274l-4.469,12.728L59.987,81.851z M80.855,109.974l-19.221,1.743l15.09-10.057
	l-12.466-0.535l20.521-12.344l3.291,9.845L80.855,109.974z M89.924,95.986l-3.705-8.072l8.979-8.798l-19.987,3.593l-2.797-11.4
	l5.908-1.598l24.933,6.557L89.924,95.986z M97.342,64.551L84.587,51.369l10.918,3.645l3.524-12.151l7.839,2.712L97.342,64.551z"/>
</svg>
