<?xml version="1.0" encoding="utf-8"?>
<!-- Generator: Adobe Illustrator 16.0.4, SVG Export Plug-In . SVG Version: 6.00 Build 0)  -->
<!DOCTYPE svg PUBLIC "-//W3C//DTD SVG 1.1//EN" "http://www.w3.org/Graphics/SVG/1.1/DTD/svg11.dtd">
<svg version="1.1" id="Layer_1" xmlns="http://www.w3.org/2000/svg" xmlns:xlink="http://www.w3.org/1999/xlink" x="0px" y="0px"
	 width="220px" height="220px" viewBox="0 0 220 220" enable-background="new 0 0 220 220" xml:space="preserve">
<g>
	<polygon fill="#C1272D" points="213.55,68.347 196.289,62.375 188.531,89.131 164.487,81.106 192.574,110.131 	"/>
	<polygon fill="#C1272D" points="214.232,62.223 195.929,14.005 186.105,29.87 196.501,59.13 	"/>
	<polygon fill="#C1272D" points="157.016,3.853 191.396,10.442 182.352,28.758 165.313,29.507 	"/>
	<polygon fill="#C1272D" points="138.583,37.748 161.948,29.47 150.842,3.853 120.272,21.214 	"/>
	<polygon fill="#C1272D" points="121.108,59.258 136.37,40.432 114.877,26.506 102.086,59.308 	"/>
	<line fill="#C1272D" x1="135.941" y1="120.487" x2="87.958" y2="120.487"/>
	<polyline fill="#C1272D" points="87.807,120.474 57.752,112.559 61.562,101.151 87.414,110.588 89.909,101.983 63.083,96.595 
		66.719,85.709 92.193,94.432 94.372,86.807 68.284,81.121 71.818,70.44 96.747,79.366 99.43,70.843 73.343,65.156 77.614,54.844 
		101.255,63.199 100.978,63.213 122.493,63.213 146.136,54.858 149.233,65.425 124.319,70.856 126.952,79.566 151.193,70.821 
		154.548,81.334 129.376,86.82 131.556,94.446 156.086,85.94 159.467,96.402 133.381,102.089 136.334,110.602 161.526,101.817 
		164.916,112.377 135.941,120.487 	"/>
	<polyline fill="#C1272D" points="86.903,125.249 96.597,152.85 110.325,148.223 110.325,148.223 123.903,153.271 133.745,125.249 
		86.903,125.249 	"/>
	<polygon fill="#C1272D" points="143.846,150.114 187.854,142.198 168.084,161.577 176.238,179.35 205.596,135.93 150.695,121.49 
		137.687,125.011 	"/>
	<polygon fill="#C1272D" points="164.916,163.482 119.729,190.661 147.179,191.842 113.953,213.982 156.273,210.142 172.16,185.159 
			"/>
	<path fill="#C1272D" stroke="#000000" stroke-width="0.25" stroke-miterlimit="10" d="M55.231,120.104"/>
	<polygon fill="#C1272D" points="77.141,149.899 33.132,141.984 52.902,161.363 44.746,179.136 15.391,135.716 70.29,121.276 
		83.299,124.797 	"/>
	<polygon fill="#C1272D" points="56.07,163.269 101.258,190.447 73.808,191.628 107.033,213.769 64.713,209.928 48.826,184.945 	"/>
</g>
</svg>
