<?xml version="1.0" encoding="utf-8"?>
<!-- Generator: Adobe Illustrator 16.0.4, SVG Export Plug-In . SVG Version: 6.00 Build 0)  -->
<!DOCTYPE svg PUBLIC "-//W3C//DTD SVG 1.1//EN" "http://www.w3.org/Graphics/SVG/1.1/DTD/svg11.dtd">
<svg version="1.1" id="Layer_1" xmlns="http://www.w3.org/2000/svg" xmlns:xlink="http://www.w3.org/1999/xlink" x="0px" y="0px"
	 width="120px" height="30px" viewBox="0 0 120 30" enable-background="new 0 0 120 30" xml:space="preserve">
<g>
	<path fill="#C1272D" d="M4.161,9.993V6.459l2.356-2.16H2.983c0.183-0.551,0.445-1.067,0.786-1.552C4.108,2.264,4.5,1.8,4.946,1.354
		h11.505l-1.806,3.142H8.48v3.337l7.107,3.574v13.115c0,0.027-0.053,0.087-0.157,0.178c-0.105,0.092-0.183,0.163-0.235,0.216
		c-0.105,0.054-0.255,0.131-0.452,0.236c-0.196,0.104-0.309,0.156-0.334,0.156H4.986c-0.026,0-0.085-0.052-0.177-0.156
		c-0.092-0.105-0.164-0.183-0.216-0.236c-0.053-0.104-0.131-0.249-0.236-0.433C4.252,24.3,4.2,24.184,4.2,24.13v-8.05
		c0.288,0,0.654,0.046,1.1,0.139c0.445,0.091,0.884,0.2,1.315,0.331c0.433,0.132,0.825,0.276,1.178,0.434
		c0.354,0.156,0.595,0.301,0.727,0.433v4.752h2.749v-8.641L4.161,9.993z"/>
	<path fill="#C1272D" d="M22.264,4.888v17.28h2.749v-4.282c0.13-0.131,0.373-0.275,0.726-0.432c0.354-0.158,0.746-0.301,1.178-0.434
		c0.432-0.129,0.87-0.239,1.315-0.332c0.445-0.092,0.811-0.139,1.1-0.139v8.758H18.729c-0.026,0-0.085-0.052-0.177-0.156
		c-0.092-0.105-0.164-0.183-0.216-0.236c-0.052-0.104-0.131-0.249-0.235-0.433c-0.105-0.183-0.158-0.299-0.158-0.353V6.852
		L20.3,4.299h-3.534c0.183-0.551,0.445-1.067,0.786-1.552c0.339-0.483,0.732-0.948,1.178-1.394h10.603v7.069l-0.235-0.079
		c-0.419-0.157-0.825-0.327-1.218-0.511c-0.393-0.183-0.747-0.405-1.06-0.667c-0.315-0.261-0.564-0.576-0.747-0.942
		c-0.184-0.367-0.275-0.812-0.275-1.335H22.264z"/>
	<path fill="#C1272D" d="M34.122,4.299h-3.534C30.693,4.142,30.83,3.919,31,3.632c0.17-0.289,0.347-0.583,0.53-0.884
		c0.183-0.3,0.366-0.582,0.55-0.844c0.183-0.261,0.339-0.445,0.471-0.55h10.72c0.026,0,0.138,0.053,0.334,0.157
		c0.196,0.105,0.346,0.184,0.451,0.235c0.052,0.053,0.131,0.125,0.235,0.217c0.104,0.091,0.158,0.151,0.158,0.176v22.382
		c0,0.027-0.053,0.087-0.158,0.178c-0.104,0.092-0.183,0.163-0.235,0.216c-0.105,0.054-0.255,0.131-0.451,0.236
		c-0.196,0.104-0.308,0.156-0.334,0.156h-10.72c-0.026,0-0.085-0.052-0.177-0.156c-0.092-0.105-0.164-0.183-0.216-0.236
		c-0.053-0.104-0.131-0.249-0.236-0.433c-0.104-0.183-0.157-0.299-0.157-0.353V6.852L34.122,4.299z M36.086,22.168h4.044V4.496
		h-4.044V22.168z"/>
	<path fill="#C1272D" d="M59.608,9.601v18.574c-0.368-0.027-0.766-0.156-1.198-0.394c-0.432-0.235-0.858-0.503-1.276-0.806
		c-0.419-0.301-0.799-0.607-1.139-0.922c-0.341-0.313-0.589-0.562-0.746-0.746V11.25l-4.084,1.924v12.134h-4.32V7.637l2.356-3.338
		h-3.534c0.183-0.551,0.445-1.067,0.785-1.552c0.34-0.483,0.733-0.948,1.178-1.394h11.231c0.261,0.105,0.438,0.229,0.53,0.373
		c0.092,0.145,0.163,0.294,0.216,0.452V7.44l-1.335,0.982L59.608,9.601z M55.25,7.166v-2.67h-4.084v4.712L55.25,7.166z"/>
	<path fill="#C1272D" d="M64.397,4.299h-3.534c0.182-0.551,0.445-1.067,0.785-1.552c0.34-0.483,0.733-0.948,1.179-1.394h11.23
		c0.261,0.105,0.438,0.229,0.53,0.373c0.092,0.145,0.163,0.294,0.216,0.452v6.99l-8.443,4.162v12.016
		c-0.157,0.183-0.405,0.434-0.746,0.748c-0.34,0.312-0.713,0.62-1.119,0.921c-0.405,0.301-0.83,0.571-1.275,0.806
		c-0.445,0.235-0.838,0.367-1.178,0.392V7.637L64.397,4.299z M70.445,7.166v-2.67H66.36v4.712L70.445,7.166z"/>
	<path fill="#C1272D" d="M87.646,22.364c-0.185,0.55-0.445,1.066-0.786,1.55c-0.34,0.486-0.733,0.948-1.178,1.394h-9.936
		l1.807-2.943h1.845V6.459l1.964-2.16h-5.576c0.185-0.551,0.445-1.067,0.786-1.552c0.339-0.483,0.731-0.948,1.178-1.394h9.935
		l-1.807,2.945h-2.158v18.065H87.646z"/>
	<path fill="#C1272D" d="M91.492,4.299h-3.534c0.105-0.157,0.242-0.38,0.414-0.667c0.17-0.289,0.346-0.583,0.53-0.884
		c0.181-0.3,0.365-0.582,0.548-0.844c0.184-0.261,0.342-0.445,0.472-0.55h10.721c0.026,0,0.139,0.053,0.333,0.157
		c0.196,0.105,0.347,0.184,0.453,0.235c0.052,0.053,0.13,0.125,0.234,0.217c0.104,0.091,0.158,0.151,0.158,0.176v22.382
		c0,0.027-0.054,0.087-0.158,0.178c-0.104,0.092-0.183,0.163-0.234,0.216c-0.106,0.054-0.257,0.131-0.453,0.236
		c-0.194,0.104-0.307,0.156-0.333,0.156H89.922c-0.026,0-0.085-0.052-0.178-0.156c-0.091-0.105-0.161-0.183-0.216-0.236
		c-0.052-0.104-0.131-0.249-0.234-0.433c-0.104-0.183-0.156-0.299-0.156-0.353V6.852L91.492,4.299z M93.456,22.168h4.045V4.496
		h-4.045V22.168z"/>
	<path fill="#C1272D" d="M104.255,1.354h4.006l4.397,5.655V1.354h4.359v23.954h-4.359V14.391l-4.044-5.38v16.886
		c0,0.235-0.19,0.492-0.569,0.766c-0.38,0.273-0.818,0.55-1.315,0.823c-0.498,0.275-0.989,0.519-1.474,0.727
		c-0.484,0.21-0.818,0.354-1.001,0.434V1.354z"/>
</g>
</svg>
