<?xml version="1.0" encoding="utf-8"?>
<!-- Generator: Adobe Illustrator 16.0.4, SVG Export Plug-In . SVG Version: 6.00 Build 0)  -->
<!DOCTYPE svg PUBLIC "-//W3C//DTD SVG 1.1//EN" "http://www.w3.org/Graphics/SVG/1.1/DTD/svg11.dtd">
<svg version="1.1" id="Layer_1" xmlns="http://www.w3.org/2000/svg" xmlns:xlink="http://www.w3.org/1999/xlink" x="0px" y="0px"
	 width="319px" height="398.98px" viewBox="0 0 319 398.98" enable-background="new 0 0 319 398.98" xml:space="preserve">
<g>
	<path fill="#C1272D" d="M16.851,345.48v-9l6-5.5h-9c0.466-1.4,1.133-2.716,2-3.95c0.866-1.232,1.866-2.415,3-3.55h29.3l-4.6,8
		h-15.7v8.5l18.1,9.1v33.4c0,0.067-0.134,0.217-0.4,0.45c-0.268,0.234-0.467,0.417-0.6,0.55c-0.267,0.135-0.65,0.334-1.15,0.6
		c-0.5,0.268-0.785,0.4-0.85,0.4h-24c-0.067,0-0.217-0.133-0.45-0.4c-0.234-0.266-0.417-0.465-0.55-0.6
		c-0.134-0.266-0.334-0.633-0.6-1.1c-0.267-0.466-0.4-0.766-0.4-0.9v-20.5c0.733,0,1.666,0.117,2.8,0.35
		c1.133,0.234,2.25,0.518,3.35,0.851c1.1,0.334,2.1,0.7,3,1.1c0.9,0.4,1.516,0.768,1.85,1.101v12.1h7v-22L16.851,345.48z"/>
	<path fill="#C1272D" d="M62.95,332.48v44h7v-10.9c0.333-0.332,0.95-0.699,1.85-1.1c0.9-0.4,1.9-0.766,3-1.1
		c1.1-0.333,2.215-0.616,3.35-0.851c1.133-0.232,2.066-0.35,2.8-0.35v22.3h-27c-0.067,0-0.217-0.133-0.45-0.4
		c-0.234-0.266-0.417-0.465-0.55-0.6c-0.134-0.266-0.334-0.633-0.6-1.1c-0.267-0.466-0.4-0.766-0.4-0.9v-44l6-6.5h-9
		c0.465-1.4,1.133-2.716,2-3.95c0.866-1.232,1.866-2.415,3-3.55h27v18l-0.6-0.2c-1.067-0.399-2.1-0.833-3.1-1.3
		c-1-0.466-1.9-1.033-2.7-1.7c-0.8-0.665-1.435-1.466-1.9-2.399c-0.467-0.934-0.7-2.066-0.7-3.4H62.95z"/>
	<path fill="#C1272D" d="M93.149,330.98h-9c0.266-0.4,0.616-0.966,1.05-1.7c0.433-0.732,0.883-1.482,1.35-2.25
		c0.466-0.766,0.933-1.482,1.4-2.149c0.466-0.666,0.866-1.133,1.2-1.4h27.3c0.066,0,0.35,0.135,0.85,0.4
		c0.5,0.267,0.883,0.467,1.15,0.6c0.133,0.135,0.333,0.317,0.6,0.55c0.266,0.234,0.4,0.385,0.4,0.45v57
		c0,0.067-0.134,0.217-0.4,0.45c-0.267,0.234-0.467,0.417-0.6,0.55c-0.267,0.135-0.65,0.334-1.15,0.6c-0.5,0.268-0.784,0.4-0.85,0.4
		h-27.3c-0.067,0-0.217-0.133-0.45-0.4c-0.234-0.266-0.417-0.465-0.55-0.6c-0.134-0.266-0.334-0.633-0.6-1.1
		c-0.267-0.466-0.4-0.766-0.4-0.9v-44L93.149,330.98z M98.149,376.48h10.3v-45h-10.3V376.48z"/>
	<path fill="#C1272D" d="M158.049,344.48v47.3c-0.936-0.067-1.951-0.399-3.051-1c-1.1-0.6-2.184-1.284-3.25-2.05
		c-1.066-0.768-2.033-1.55-2.9-2.35c-0.867-0.801-1.5-1.435-1.898-1.9v-35.8l-10.4,4.899v30.9h-11v-45l6-8.5h-9
		c0.466-1.4,1.133-2.716,2-3.95c0.866-1.232,1.866-2.415,3-3.55h28.6c0.666,0.268,1.115,0.584,1.35,0.95
		c0.232,0.367,0.416,0.75,0.551,1.149v13.4l-3.4,2.5L158.049,344.48z M146.949,338.28v-6.8h-10.4v12L146.949,338.28z"/>
	<path fill="#C1272D" d="M170.246,330.98h-9c0.466-1.4,1.133-2.716,2-3.95c0.866-1.232,1.866-2.415,3-3.55h28.601
		c0.665,0.268,1.115,0.584,1.35,0.95c0.233,0.367,0.416,0.75,0.55,1.149v17.801l-21.5,10.6v30.6c-0.399,0.466-1.034,1.101-1.899,1.9
		c-0.867,0.8-1.817,1.583-2.851,2.35c-1.034,0.766-2.117,1.45-3.25,2.051c-1.134,0.6-2.134,0.933-3,1v-52.4L170.246,330.98z
		 M185.646,338.28v-6.8h-10.4v12L185.646,338.28z"/>
	<path fill="#C1272D" d="M229.445,376.98c-0.467,1.4-1.134,2.717-2,3.95c-0.867,1.234-1.867,2.417-3,3.55h-25.3l4.601-7.5h4.699
		v-40.5l5-5.5h-14.199c0.467-1.4,1.133-2.716,2-3.95c0.865-1.232,1.865-2.415,3-3.55h25.3l-4.601,7.5h-5.5v46H229.445z"/>
	<path fill="#C1272D" d="M239.245,330.98h-9c0.266-0.4,0.616-0.966,1.051-1.7c0.433-0.732,0.883-1.482,1.35-2.25
		c0.466-0.766,0.933-1.482,1.4-2.149c0.465-0.666,0.865-1.133,1.199-1.4h27.301c0.065,0,0.35,0.135,0.85,0.4
		c0.5,0.267,0.883,0.467,1.15,0.6c0.133,0.135,0.332,0.317,0.6,0.55c0.266,0.234,0.4,0.385,0.4,0.45v57
		c0,0.067-0.135,0.217-0.4,0.45c-0.268,0.234-0.467,0.417-0.6,0.55c-0.268,0.135-0.65,0.334-1.15,0.6c-0.5,0.268-0.784,0.4-0.85,0.4
		h-27.301c-0.066,0-0.217-0.133-0.449-0.4c-0.234-0.266-0.418-0.465-0.551-0.6c-0.134-0.266-0.334-0.633-0.6-1.1
		c-0.268-0.466-0.4-0.766-0.4-0.9v-44L239.245,330.98z M244.245,376.48h10.301v-45h-10.301V376.48z"/>
	<path fill="#C1272D" d="M271.744,323.48h10.2l11.2,14.4v-14.4h11.1v61h-11.1v-27.8l-10.3-13.7v43c0,0.6-0.484,1.25-1.45,1.95
		c-0.967,0.7-2.084,1.399-3.35,2.1c-1.268,0.7-2.518,1.315-3.75,1.851c-1.234,0.532-2.085,0.899-2.551,1.1V323.48z"/>
</g>
<g>
	<polygon fill="#C1272D" points="307.009,102.101 282.2,93.518 271.048,131.975 236.489,120.44 276.857,162.159 	"/>
	<polygon fill="#C1272D" points="307.99,93.298 281.68,23.994 267.563,46.795 282.503,88.853 	"/>
	<polygon fill="#C1272D" points="225.75,9.401 275.167,18.873 262.166,45.198 237.677,46.274 	"/>
	<polygon fill="#C1272D" points="199.256,58.12 232.84,46.222 216.876,9.401 172.938,34.355 	"/>
	<polygon fill="#C1272D" points="174.139,89.037 196.075,61.977 165.182,41.962 146.799,89.108 	"/>
	<line fill="#C1272D" x1="195.459" y1="177.044" x2="126.491" y2="177.044"/>
	<polyline fill="#C1272D" points="126.275,177.025 83.075,165.648 88.551,149.251 125.709,162.814 129.296,150.447 90.738,142.702 
		95.964,127.055 132.579,139.593 135.71,128.633 98.214,120.46 103.293,105.11 139.124,117.938 142.98,105.688 105.484,97.515 
		111.623,82.692 145.604,94.702 145.205,94.722 176.13,94.722 210.111,82.712 214.565,97.902 178.754,105.708 182.539,118.227 
		217.382,105.658 222.202,120.767 186.023,128.653 189.155,139.613 224.414,127.388 229.274,142.426 191.778,150.599 
		196.024,162.834 232.232,150.209 237.104,165.386 195.459,177.044 	"/>
	<polyline fill="#C1272D" points="124.975,183.888 138.908,223.559 158.64,216.908 158.64,216.908 178.156,224.166 192.303,183.888 
		124.975,183.888 	"/>
	<polygon fill="#C1272D" points="206.818,219.626 270.075,208.25 241.658,236.103 253.381,261.649 295.574,199.239 216.666,178.485 
		197.969,183.547 	"/>
	<polygon fill="#C1272D" points="237.104,238.842 172.155,277.907 211.61,279.605 163.854,311.427 224.683,305.908 247.518,269.999 
			"/>
	<path fill="#C1272D" stroke="#000000" stroke-width="0.25" stroke-miterlimit="10" d="M79.452,176.495"/>
	<polygon fill="#C1272D" points="110.944,219.319 47.688,207.942 76.104,235.795 64.382,261.341 22.188,198.931 101.097,178.177 
		119.794,183.24 	"/>
	<polygon fill="#C1272D" points="80.658,238.535 145.607,277.599 106.152,279.297 153.908,311.12 93.08,305.6 70.245,269.691 	"/>
</g>
</svg>
